<?xml version="1.0" encoding="utf-8"?>
<!-- Generator: Adobe Illustrator 16.0.4, SVG Export Plug-In . SVG Version: 6.00 Build 0)  -->
<!DOCTYPE svg PUBLIC "-//W3C//DTD SVG 1.1//EN" "http://www.w3.org/Graphics/SVG/1.1/DTD/svg11.dtd">
<svg version="1.1" xmlns="http://www.w3.org/2000/svg" xmlns:xlink="http://www.w3.org/1999/xlink" x="0px" y="0px" width="920px"
	 height="278.068px" viewBox="0 0 920 278.068" enable-background="new 0 0 920 278.068" xml:space="preserve">
<symbol  id="logo-white" viewBox="-460 -139.034 920 278.068">
	<polygon fill="none" points="460,-139.034 -460,-139.034 -460,139.034 460,139.034 	"/>
	<g>
		<g>
			<path fill="#FFFFFF" d="M196.754-36.419L67.385,101.053L204.856-28.316c2.305-2.169,2.415-5.796,0.246-8.103
				c-2.17-2.305-5.796-2.415-8.103-0.245C196.92-36.589,196.83-36.498,196.754-36.419"/>
			<path fill="#FFFFFF" d="M177.739-46.114L80.192,59.536l105.65-97.549c2.326-2.147,2.471-5.774,0.323-8.102
				c-2.148-2.326-5.776-2.472-8.103-0.322C177.953-46.336,177.84-46.222,177.739-46.114"/>
			<path fill="#FFFFFF" d="M157.973-46.398L93.146,23.829l70.228-64.826c1.552-1.432,1.648-3.851,0.217-5.401
				c-1.432-1.55-3.852-1.648-5.401-0.217C158.115-46.546,158.039-46.47,157.973-46.398"/>
			<path fill="#FFFFFF" d="M212.289,2.209l-67.68,73.083L217.69,7.61c1.549-1.434,1.642-3.853,0.207-5.401s-3.851-1.641-5.401-0.206
				C212.426,2.066,212.354,2.141,212.289,2.209"/>
			<path fill="#FFFFFF" d="M206.45-18.252L108.479,87.821L214.552-10.15c2.326-2.148,2.47-5.774,0.321-8.102
				c-2.147-2.326-5.775-2.47-8.102-0.32C206.661-18.473,206.55-18.359,206.45-18.252"/>
			<path fill="#FFFFFF" d="M137.764-40.643l-30.84,33.54l33.54-30.84c0.777-0.715,0.828-1.924,0.114-2.7
				c-0.715-0.777-1.924-0.827-2.7-0.114C137.839-40.72,137.8-40.681,137.764-40.643"/>
			<path fill="#FFFFFF" d="M209.87,26.49l-30.839,33.541l33.539-30.84c0.778-0.716,0.828-1.924,0.114-2.701
				c-0.715-0.777-1.924-0.827-2.701-0.114C209.946,26.413,209.905,26.453,209.87,26.49"/>
		</g>
		<polygon fill="#FFFFFF" points="-321.482,46.319 -299.507,46.319 -275.149,7.134 -250.79,46.319 -228.814,46.319 
			-228.814,-46.351 -248.938,-46.351 -248.938,14.149 -275.018,-25.433 -275.545,-25.433 -301.361,13.752 -301.361,-46.351
			-321.482,-46.351 		"/>
		<polygon fill="#FFFFFF" points="-193.842,46.319 -124.075,46.319 -124.075,28.183 -173.719,28.183 -173.719,9.384 -130.032,9.384 
			-130.032,-8.753 -173.719,-8.753 -173.719,-28.213 -123.415,-28.213 -123.415,-46.351 -193.842,-46.351 		"/>
		<polygon fill="#FFFFFF" points="-70.328,27.521 -98.524,27.521 -98.524,46.319 -21.743,46.319 -21.743,27.521 -49.941,27.521 
			-49.941,-46.35 -70.328,-46.35 		"/>
		<polygon fill="#FFFFFF" points="7.115,46.319 76.881,46.319 76.881,28.183 27.238,28.183 27.238,9.384 70.925,9.384 
			70.925,-8.753 27.238,-8.753 27.238,-28.213 77.543,-28.213 77.543,-46.351 7.115,-46.351 		"/>
		<path fill="#FFFFFF" d="M241.432,46.319h42.359c11.739,0,20.741-3.134,27.007-9.399c5.297-5.295,7.943-12.357,7.943-21.181v-0.266
			c0-7.503-1.832-13.614-5.493-18.336c-3.663-4.723-8.452-8.186-14.364-10.393l22.638-33.095h-23.829l-19.857,29.653h-0.263h-15.756
			V-46.35h-20.385V46.319z M282.47,1.308c5.03,0,8.89,1.192,11.583,3.574c2.691,2.384,4.037,5.561,4.037,9.533v0.265
			c0,4.412-1.413,7.721-4.238,9.929c-2.824,2.205-6.75,3.31-11.779,3.31h-20.256V1.308H282.47z"/>
	</g>
</symbol>
<g id="Layer_1">
</g>
<g id="Layer_2">

		<use xlink:href="#logo-white"  width="920" height="278.068" x="-460" y="-139.034" transform="matrix(1 0 0 -1 460 139.0342)" overflow="visible"/>
</g>
</svg>
